<svg xmlns="http://www.w3.org/2000/svg" width="32" height="32" viewBox="-4 -4 32 32" fill="none" stroke="white" stroke-width="2" stroke-linecap="round" stroke-linejoin="round" class="lucide lucide-book-open-check" aria-hidden="true" style="background:#16776a;border-radius:6px"><path d="M12 5v16"></path><path d="m16 12 2 2 4-4"></path><path d="M22 6V5a2 2 0 00-1.999-2L16 3.002A5 5 0 0012 5a5 5 0 00-4-2H4a2 2 0 00-2 2v12a2 2 0 001.999 2H8a5 5 0 014 2 5 5 0 014-2h4.001A2 2 0 0022 17v-1.344"></path></svg>
